<mxfile host="Electron" agent="Mozilla/5.0 (Windows NT 10.0; Win64; x64) AppleWebKit/537.36 (KHTML, like Gecko) draw.io/24.7.8 Chrome/128.0.6613.36 Electron/32.0.1 Safari/537.36" version="24.7.8">
  <diagram name="Страница 1" id="TOjDYo58S94x5N3d6gYC">
    <mxGraphModel dx="3033" dy="1286" grid="1" gridSize="10" guides="1" tooltips="1" connect="1" arrows="1" fold="1" page="1" pageScale="1" pageWidth="827" pageHeight="1169" math="0" shadow="0">
      <root>
        <mxCell id="0" />
        <mxCell id="1" parent="0" />
        <mxCell id="O_ba_ppbJs6XQOrmg7lZ-14" value="" style="rounded=0;whiteSpace=wrap;html=1;fontSize=16;" vertex="1" parent="1">
          <mxGeometry x="230" y="900" width="140" height="80" as="geometry" />
        </mxCell>
        <mxCell id="O_ba_ppbJs6XQOrmg7lZ-13" value="" style="rounded=0;whiteSpace=wrap;html=1;fontSize=16;" vertex="1" parent="1">
          <mxGeometry x="220" y="890" width="140" height="80" as="geometry" />
        </mxCell>
        <mxCell id="O_ba_ppbJs6XQOrmg7lZ-12" value="" style="rounded=0;whiteSpace=wrap;html=1;fontSize=16;" vertex="1" parent="1">
          <mxGeometry x="210" y="880" width="140" height="80" as="geometry" />
        </mxCell>
        <mxCell id="6smfAwCIfCThVby5wnXH-28" value="" style="rounded=0;whiteSpace=wrap;html=1;fontSize=16;" parent="1" vertex="1">
          <mxGeometry x="440" y="970" width="120" height="60" as="geometry" />
        </mxCell>
        <mxCell id="6smfAwCIfCThVby5wnXH-19" value="" style="rounded=0;whiteSpace=wrap;html=1;fontSize=16;" parent="1" vertex="1">
          <mxGeometry x="592" y="765" width="120" height="60" as="geometry" />
        </mxCell>
        <mxCell id="6smfAwCIfCThVby5wnXH-50" style="edgeStyle=orthogonalEdgeStyle;rounded=0;orthogonalLoop=1;jettySize=auto;html=1;dashed=1;dashPattern=12 12;exitX=0.25;exitY=1;exitDx=0;exitDy=0;entryX=0.111;entryY=-0.006;entryDx=0;entryDy=0;entryPerimeter=0;fontSize=16;" parent="1" source="6smfAwCIfCThVby5wnXH-63" target="6smfAwCIfCThVby5wnXH-16" edge="1">
          <mxGeometry relative="1" as="geometry">
            <mxPoint x="-267" y="890" as="targetPoint" />
            <mxPoint x="-307" y="700" as="sourcePoint" />
            <Array as="points">
              <mxPoint x="-260" y="640" />
              <mxPoint x="334" y="640" />
              <mxPoint x="334" y="750" />
            </Array>
          </mxGeometry>
        </mxCell>
        <mxCell id="6smfAwCIfCThVby5wnXH-61" style="edgeStyle=orthogonalEdgeStyle;rounded=0;orthogonalLoop=1;jettySize=auto;html=1;dashed=1;dashPattern=12 12;exitX=0.75;exitY=1;exitDx=0;exitDy=0;entryX=0.38;entryY=-0.006;entryDx=0;entryDy=0;entryPerimeter=0;fontSize=16;" parent="1" source="6smfAwCIfCThVby5wnXH-63" target="6smfAwCIfCThVby5wnXH-16" edge="1">
          <mxGeometry relative="1" as="geometry">
            <mxPoint x="-297" y="700" as="sourcePoint" />
            <Array as="points">
              <mxPoint x="-232" y="620" />
              <mxPoint x="369" y="620" />
            </Array>
            <mxPoint x="360" y="900" as="targetPoint" />
          </mxGeometry>
        </mxCell>
        <mxCell id="6smfAwCIfCThVby5wnXH-70" style="edgeStyle=orthogonalEdgeStyle;rounded=0;orthogonalLoop=1;jettySize=auto;html=1;entryX=1;entryY=0.25;entryDx=0;entryDy=0;dashed=1;dashPattern=8 8;exitX=0.004;exitY=0.133;exitDx=0;exitDy=0;exitPerimeter=0;fontSize=16;" parent="1" source="6smfAwCIfCThVby5wnXH-1" target="6smfAwCIfCThVby5wnXH-6" edge="1">
          <mxGeometry relative="1" as="geometry">
            <Array as="points">
              <mxPoint x="-309" y="430" />
              <mxPoint x="-330" y="430" />
              <mxPoint x="-330" y="355" />
            </Array>
          </mxGeometry>
        </mxCell>
        <mxCell id="6smfAwCIfCThVby5wnXH-1" value="Микроконтроллер" style="rounded=0;whiteSpace=wrap;html=1;fontSize=16;" parent="1" vertex="1">
          <mxGeometry x="-310" y="410" width="160" height="160" as="geometry" />
        </mxCell>
        <mxCell id="6smfAwCIfCThVby5wnXH-68" style="edgeStyle=orthogonalEdgeStyle;rounded=0;orthogonalLoop=1;jettySize=auto;html=1;entryX=-0.001;entryY=0.823;entryDx=0;entryDy=0;entryPerimeter=0;fontSize=16;" parent="1" edge="1">
          <mxGeometry relative="1" as="geometry">
            <Array as="points">
              <mxPoint x="-360" y="530.14" />
            </Array>
            <mxPoint x="-420" y="529.8417543859649" as="sourcePoint" />
            <mxPoint x="-310.1600000000001" y="529.8199999999998" as="targetPoint" />
          </mxGeometry>
        </mxCell>
        <mxCell id="6smfAwCIfCThVby5wnXH-2" value="Кнопка RESET" style="whiteSpace=wrap;html=1;fontSize=16;" parent="1" vertex="1">
          <mxGeometry x="-540" y="500" width="120" height="60" as="geometry" />
        </mxCell>
        <mxCell id="6smfAwCIfCThVby5wnXH-67" style="edgeStyle=orthogonalEdgeStyle;rounded=0;orthogonalLoop=1;jettySize=auto;html=1;entryX=0.001;entryY=0.94;entryDx=0;entryDy=0;entryPerimeter=0;fontSize=16;" parent="1" source="6smfAwCIfCThVby5wnXH-3" target="6smfAwCIfCThVby5wnXH-1" edge="1">
          <mxGeometry relative="1" as="geometry">
            <Array as="points">
              <mxPoint x="-390" y="610" />
              <mxPoint x="-390" y="560" />
            </Array>
          </mxGeometry>
        </mxCell>
        <mxCell id="6smfAwCIfCThVby5wnXH-3" value="Пины для программатора" style="whiteSpace=wrap;html=1;fontSize=16;" parent="1" vertex="1">
          <mxGeometry x="-540" y="580" width="120" height="60" as="geometry" />
        </mxCell>
        <mxCell id="6smfAwCIfCThVby5wnXH-69" style="edgeStyle=orthogonalEdgeStyle;rounded=0;orthogonalLoop=1;jettySize=auto;html=1;exitX=1;exitY=0.5;exitDx=0;exitDy=0;fontSize=16;" parent="1" source="6smfAwCIfCThVby5wnXH-5" edge="1">
          <mxGeometry relative="1" as="geometry">
            <mxPoint x="-310" y="479.98" as="targetPoint" />
            <Array as="points">
              <mxPoint x="-390" y="450" />
              <mxPoint x="-390" y="480" />
            </Array>
            <mxPoint x="-420" y="419.9975438596491" as="sourcePoint" />
          </mxGeometry>
        </mxCell>
        <mxCell id="6smfAwCIfCThVby5wnXH-5" value="&lt;font style=&quot;font-size: 16px;&quot;&gt;Переключатель для BOOT0&lt;/font&gt;" style="rounded=0;whiteSpace=wrap;html=1;fontSize=16;" parent="1" vertex="1">
          <mxGeometry x="-550" y="420" width="130" height="60" as="geometry" />
        </mxCell>
        <mxCell id="6smfAwCIfCThVby5wnXH-71" style="edgeStyle=orthogonalEdgeStyle;rounded=0;orthogonalLoop=1;jettySize=auto;html=1;entryX=0;entryY=0.59;entryDx=0;entryDy=0;entryPerimeter=0;dashed=1;dashPattern=8 8;exitX=1;exitY=0.75;exitDx=0;exitDy=0;fontSize=16;" parent="1" source="6smfAwCIfCThVby5wnXH-6" edge="1">
          <mxGeometry relative="1" as="geometry">
            <Array as="points">
              <mxPoint x="-360" y="385" />
              <mxPoint x="-360" y="450" />
            </Array>
            <mxPoint x="-420" y="335.59754385964914" as="sourcePoint" />
            <mxPoint x="-310" y="449.98" as="targetPoint" />
          </mxGeometry>
        </mxCell>
        <mxCell id="6smfAwCIfCThVby5wnXH-6" value="&lt;font style=&quot;font-size: 16px;&quot;&gt;Резонатор с обвязкой&lt;/font&gt;" style="rounded=0;whiteSpace=wrap;html=1;fontSize=16;" parent="1" vertex="1">
          <mxGeometry x="-540" y="340" width="120" height="60" as="geometry" />
        </mxCell>
        <mxCell id="6smfAwCIfCThVby5wnXH-82" style="edgeStyle=orthogonalEdgeStyle;rounded=0;orthogonalLoop=1;jettySize=auto;html=1;entryX=1.002;entryY=0.65;entryDx=0;entryDy=0;dashed=1;dashPattern=12 12;exitX=0;exitY=0.75;exitDx=0;exitDy=0;entryPerimeter=0;fontSize=16;" parent="1" source="6smfAwCIfCThVby5wnXH-7" target="6smfAwCIfCThVby5wnXH-42" edge="1">
          <mxGeometry relative="1" as="geometry">
            <Array as="points">
              <mxPoint x="693" y="390" />
              <mxPoint x="-220" y="390" />
            </Array>
          </mxGeometry>
        </mxCell>
        <mxCell id="6smfAwCIfCThVby5wnXH-84" style="edgeStyle=orthogonalEdgeStyle;rounded=0;orthogonalLoop=1;jettySize=auto;html=1;entryX=0;entryY=0.75;entryDx=0;entryDy=0;dashed=1;dashPattern=1 2;exitX=1;exitY=0.75;exitDx=0;exitDy=0;fontSize=16;" parent="1" source="6smfAwCIfCThVby5wnXH-7" target="6smfAwCIfCThVby5wnXH-8" edge="1">
          <mxGeometry relative="1" as="geometry">
            <Array as="points">
              <mxPoint x="863" y="395" />
              <mxPoint x="863" y="395" />
            </Array>
            <mxPoint x="733" y="310" as="sourcePoint" />
          </mxGeometry>
        </mxCell>
        <mxCell id="6smfAwCIfCThVby5wnXH-7" value="Трансивер интерфейса" style="rounded=0;whiteSpace=wrap;html=1;fontSize=16;" parent="1" vertex="1">
          <mxGeometry x="693" y="350" width="120" height="60" as="geometry" />
        </mxCell>
        <mxCell id="6smfAwCIfCThVby5wnXH-83" style="edgeStyle=orthogonalEdgeStyle;rounded=0;orthogonalLoop=1;jettySize=auto;html=1;entryX=1;entryY=0.25;entryDx=0;entryDy=0;dashed=1;dashPattern=1 2;exitX=0;exitY=0.25;exitDx=0;exitDy=0;fontSize=16;" parent="1" source="6smfAwCIfCThVby5wnXH-8" target="6smfAwCIfCThVby5wnXH-7" edge="1">
          <mxGeometry relative="1" as="geometry">
            <Array as="points">
              <mxPoint x="843" y="365" />
              <mxPoint x="843" y="365" />
            </Array>
          </mxGeometry>
        </mxCell>
        <mxCell id="6smfAwCIfCThVby5wnXH-8" value="Разъем внешнего интерфейса" style="rounded=0;whiteSpace=wrap;html=1;fontSize=16;" parent="1" vertex="1">
          <mxGeometry x="873" y="350" width="127" height="60" as="geometry" />
        </mxCell>
        <mxCell id="6smfAwCIfCThVby5wnXH-37" value="" style="edgeStyle=orthogonalEdgeStyle;rounded=0;orthogonalLoop=1;jettySize=auto;html=1;sourcePerimeterSpacing=0;targetPerimeterSpacing=0;endSize=10;startSize=10;jumpSize=10;strokeWidth=4;fontSize=16;" parent="1" source="6smfAwCIfCThVby5wnXH-9" target="6smfAwCIfCThVby5wnXH-12" edge="1">
          <mxGeometry relative="1" as="geometry" />
        </mxCell>
        <mxCell id="6smfAwCIfCThVby5wnXH-9" value="Силовой разъем питания" style="rounded=0;whiteSpace=wrap;html=1;fontSize=16;" parent="1" vertex="1">
          <mxGeometry x="-610" y="820" width="120" height="60" as="geometry" />
        </mxCell>
        <mxCell id="6smfAwCIfCThVby5wnXH-11" value="Светодиод&amp;nbsp;&lt;div style=&quot;font-size: 16px;&quot;&gt;питания&lt;/div&gt;" style="rounded=0;whiteSpace=wrap;html=1;fontSize=16;" parent="1" vertex="1">
          <mxGeometry x="160" y="690" width="120" height="60" as="geometry" />
        </mxCell>
        <mxCell id="6smfAwCIfCThVby5wnXH-38" value="" style="edgeStyle=orthogonalEdgeStyle;rounded=0;orthogonalLoop=1;jettySize=auto;html=1;strokeWidth=4;fontSize=16;" parent="1" source="6smfAwCIfCThVby5wnXH-12" target="6smfAwCIfCThVby5wnXH-13" edge="1">
          <mxGeometry relative="1" as="geometry" />
        </mxCell>
        <mxCell id="6smfAwCIfCThVby5wnXH-12" value="Защита от переполюсовки" style="rounded=0;whiteSpace=wrap;html=1;fontSize=16;" parent="1" vertex="1">
          <mxGeometry x="-370" y="820" width="120" height="60" as="geometry" />
        </mxCell>
        <mxCell id="6smfAwCIfCThVby5wnXH-39" value="" style="edgeStyle=orthogonalEdgeStyle;rounded=0;orthogonalLoop=1;jettySize=auto;html=1;strokeWidth=4;exitX=0.5;exitY=0;exitDx=0;exitDy=0;entryX=0.5;entryY=1;entryDx=0;entryDy=0;fontSize=16;" parent="1" source="6smfAwCIfCThVby5wnXH-13" target="6smfAwCIfCThVby5wnXH-14" edge="1">
          <mxGeometry relative="1" as="geometry">
            <mxPoint x="-80" y="800" as="sourcePoint" />
            <Array as="points" />
          </mxGeometry>
        </mxCell>
        <mxCell id="6smfAwCIfCThVby5wnXH-13" value="Защита по току" style="rounded=0;whiteSpace=wrap;html=1;fontSize=16;" parent="1" vertex="1">
          <mxGeometry x="-190" y="820" width="120" height="60" as="geometry" />
        </mxCell>
        <mxCell id="6smfAwCIfCThVby5wnXH-41" value="" style="edgeStyle=orthogonalEdgeStyle;rounded=0;orthogonalLoop=1;jettySize=auto;html=1;strokeWidth=2;exitX=1;exitY=0.5;exitDx=0;exitDy=0;fontSize=16;" parent="1" source="6smfAwCIfCThVby5wnXH-14" target="6smfAwCIfCThVby5wnXH-15" edge="1">
          <mxGeometry relative="1" as="geometry">
            <mxPoint x="260" y="760.5000000000002" as="sourcePoint" />
          </mxGeometry>
        </mxCell>
        <mxCell id="6smfAwCIfCThVby5wnXH-14" value="Импульсный DC-DC преобразователь" style="rounded=0;whiteSpace=wrap;html=1;fontSize=16;" parent="1" vertex="1">
          <mxGeometry x="-197.5" y="685" width="135" height="70" as="geometry" />
        </mxCell>
        <mxCell id="O_ba_ppbJs6XQOrmg7lZ-6" value="" style="edgeStyle=orthogonalEdgeStyle;rounded=0;orthogonalLoop=1;jettySize=auto;html=1;fontSize=16;strokeWidth=2;" edge="1" parent="1" source="6smfAwCIfCThVby5wnXH-15" target="6smfAwCIfCThVby5wnXH-11">
          <mxGeometry relative="1" as="geometry" />
        </mxCell>
        <mxCell id="6smfAwCIfCThVby5wnXH-15" value="Фильтр" style="rounded=0;whiteSpace=wrap;html=1;fontSize=16;" parent="1" vertex="1">
          <mxGeometry x="-10" y="690" width="120" height="60" as="geometry" />
        </mxCell>
        <mxCell id="6smfAwCIfCThVby5wnXH-17" value="" style="rounded=0;whiteSpace=wrap;html=1;fontSize=16;" parent="1" vertex="1">
          <mxGeometry x="340" y="770" width="120" height="60" as="geometry" />
        </mxCell>
        <mxCell id="6smfAwCIfCThVby5wnXH-51" style="edgeStyle=orthogonalEdgeStyle;rounded=0;orthogonalLoop=1;jettySize=auto;html=1;strokeWidth=4;dashed=1;fontSize=16;entryX=0;entryY=0.5;entryDx=0;entryDy=0;" parent="1" source="6smfAwCIfCThVby5wnXH-16" target="6smfAwCIfCThVby5wnXH-18" edge="1">
          <mxGeometry relative="1" as="geometry">
            <mxPoint x="570" y="700" as="targetPoint" />
            <Array as="points" />
          </mxGeometry>
        </mxCell>
        <mxCell id="6smfAwCIfCThVby5wnXH-16" value="Схема управления мостовой схемы" style="rounded=0;whiteSpace=wrap;html=1;fontSize=16;" parent="1" vertex="1">
          <mxGeometry x="320" y="750" width="130" height="70" as="geometry" />
        </mxCell>
        <mxCell id="6smfAwCIfCThVby5wnXH-52" style="edgeStyle=orthogonalEdgeStyle;rounded=0;orthogonalLoop=1;jettySize=auto;html=1;strokeWidth=4;dashed=1;entryX=0.517;entryY=0.01;entryDx=0;entryDy=0;entryPerimeter=0;fontSize=16;" parent="1" edge="1" target="6smfAwCIfCThVby5wnXH-27">
          <mxGeometry relative="1" as="geometry">
            <mxPoint x="-203" y="950" as="targetPoint" />
            <mxPoint x="667" y="820" as="sourcePoint" />
            <Array as="points">
              <mxPoint x="667" y="815" />
              <mxPoint x="669" y="815" />
            </Array>
          </mxGeometry>
        </mxCell>
        <mxCell id="6smfAwCIfCThVby5wnXH-18" value="Мостовая схема" style="rounded=0;whiteSpace=wrap;html=1;fontSize=16;" parent="1" vertex="1">
          <mxGeometry x="582" y="755" width="120" height="60" as="geometry" />
        </mxCell>
        <mxCell id="6smfAwCIfCThVby5wnXH-26" value="" style="rounded=0;whiteSpace=wrap;html=1;fontSize=16;" parent="1" vertex="1">
          <mxGeometry x="617" y="970" width="120" height="60" as="geometry" />
        </mxCell>
        <mxCell id="6smfAwCIfCThVby5wnXH-57" value="" style="edgeStyle=orthogonalEdgeStyle;rounded=0;orthogonalLoop=1;jettySize=auto;html=1;strokeWidth=4;dashed=1;fontSize=16;" parent="1" source="6smfAwCIfCThVby5wnXH-27" target="6smfAwCIfCThVby5wnXH-56" edge="1">
          <mxGeometry relative="1" as="geometry" />
        </mxCell>
        <mxCell id="O_ba_ppbJs6XQOrmg7lZ-4" style="edgeStyle=orthogonalEdgeStyle;rounded=0;orthogonalLoop=1;jettySize=auto;html=1;entryX=1;entryY=0.5;entryDx=0;entryDy=0;fontSize=16;" edge="1" parent="1" source="6smfAwCIfCThVby5wnXH-27" target="6smfAwCIfCThVby5wnXH-29">
          <mxGeometry relative="1" as="geometry" />
        </mxCell>
        <mxCell id="6smfAwCIfCThVby5wnXH-27" value="Шунты для датчика тока" style="rounded=0;whiteSpace=wrap;html=1;fontSize=16;" parent="1" vertex="1">
          <mxGeometry x="607" y="960" width="120" height="60" as="geometry" />
        </mxCell>
        <mxCell id="O_ba_ppbJs6XQOrmg7lZ-10" style="edgeStyle=orthogonalEdgeStyle;rounded=0;orthogonalLoop=1;jettySize=auto;html=1;entryX=0.25;entryY=1;entryDx=0;entryDy=0;jumpStyle=arc;jumpSize=14;fontSize=16;" edge="1" parent="1" source="6smfAwCIfCThVby5wnXH-29" target="6smfAwCIfCThVby5wnXH-74">
          <mxGeometry relative="1" as="geometry">
            <mxPoint x="-590" y="730" as="targetPoint" />
            <Array as="points">
              <mxPoint x="-450" y="1010" />
              <mxPoint x="-450" y="780" />
              <mxPoint x="-300" y="780" />
            </Array>
          </mxGeometry>
        </mxCell>
        <mxCell id="O_ba_ppbJs6XQOrmg7lZ-11" style="edgeStyle=orthogonalEdgeStyle;rounded=0;orthogonalLoop=1;jettySize=auto;html=1;entryX=0.75;entryY=1;entryDx=0;entryDy=0;jumpStyle=arc;jumpSize=14;fontSize=16;" edge="1" parent="1" source="6smfAwCIfCThVby5wnXH-29" target="6smfAwCIfCThVby5wnXH-74">
          <mxGeometry relative="1" as="geometry">
            <Array as="points">
              <mxPoint x="-420" y="990" />
              <mxPoint x="-420" y="800" />
              <mxPoint x="-280" y="800" />
            </Array>
          </mxGeometry>
        </mxCell>
        <mxCell id="6smfAwCIfCThVby5wnXH-29" value="Усилитель напряжения" style="rounded=0;whiteSpace=wrap;html=1;fontSize=16;" parent="1" vertex="1">
          <mxGeometry x="430" y="960" width="120" height="60" as="geometry" />
        </mxCell>
        <mxCell id="6smfAwCIfCThVby5wnXH-32" value="" style="rounded=0;whiteSpace=wrap;html=1;fontSize=16;" parent="1" vertex="1">
          <mxGeometry x="880" y="440" width="130" height="80" as="geometry" />
        </mxCell>
        <mxCell id="6smfAwCIfCThVby5wnXH-76" value="" style="edgeStyle=orthogonalEdgeStyle;rounded=0;orthogonalLoop=1;jettySize=auto;html=1;dashed=1;dashPattern=12 12;fontSize=16;" parent="1" source="6smfAwCIfCThVby5wnXH-33" target="6smfAwCIfCThVby5wnXH-34" edge="1">
          <mxGeometry relative="1" as="geometry" />
        </mxCell>
        <mxCell id="6smfAwCIfCThVby5wnXH-33" value="Разъем энкодера&lt;br style=&quot;font-size: 16px;&quot;&gt;(2 канала + Z-метка)" style="rounded=0;whiteSpace=wrap;html=1;fontSize=16;" parent="1" vertex="1">
          <mxGeometry x="870" y="430" width="130" height="80" as="geometry" />
        </mxCell>
        <mxCell id="6smfAwCIfCThVby5wnXH-77" value="" style="edgeStyle=orthogonalEdgeStyle;rounded=0;orthogonalLoop=1;jettySize=auto;html=1;dashed=1;dashPattern=12 12;fontSize=16;" parent="1" source="6smfAwCIfCThVby5wnXH-34" target="6smfAwCIfCThVby5wnXH-36" edge="1">
          <mxGeometry relative="1" as="geometry" />
        </mxCell>
        <mxCell id="6smfAwCIfCThVby5wnXH-34" value="Фильтр" style="rounded=0;whiteSpace=wrap;html=1;fontSize=16;" parent="1" vertex="1">
          <mxGeometry x="130" y="410" width="120" height="60" as="geometry" />
        </mxCell>
        <mxCell id="6smfAwCIfCThVby5wnXH-78" style="edgeStyle=orthogonalEdgeStyle;rounded=0;orthogonalLoop=1;jettySize=auto;html=1;entryX=1;entryY=0.25;entryDx=0;entryDy=0;dashed=1;dashPattern=12 12;exitX=0;exitY=0.25;exitDx=0;exitDy=0;fontSize=16;" parent="1" source="6smfAwCIfCThVby5wnXH-36" target="6smfAwCIfCThVby5wnXH-79" edge="1">
          <mxGeometry relative="1" as="geometry">
            <mxPoint x="-170" y="360.0000000000001" as="targetPoint" />
            <Array as="points">
              <mxPoint x="-90" y="425" />
              <mxPoint x="-90" y="425" />
            </Array>
          </mxGeometry>
        </mxCell>
        <mxCell id="6smfAwCIfCThVby5wnXH-36" value="Гистерезисный буфер" style="rounded=0;whiteSpace=wrap;html=1;fontSize=16;" parent="1" vertex="1">
          <mxGeometry x="-30" y="410" width="120" height="60" as="geometry" />
        </mxCell>
        <mxCell id="6smfAwCIfCThVby5wnXH-81" style="edgeStyle=orthogonalEdgeStyle;rounded=0;orthogonalLoop=1;jettySize=auto;html=1;exitX=1;exitY=0.25;exitDx=0;exitDy=0;dashed=1;dashPattern=12 12;entryX=0;entryY=0.25;entryDx=0;entryDy=0;fontSize=16;" parent="1" source="6smfAwCIfCThVby5wnXH-42" target="6smfAwCIfCThVby5wnXH-7" edge="1">
          <mxGeometry relative="1" as="geometry">
            <mxPoint x="-272" y="260" as="targetPoint" />
            <Array as="points">
              <mxPoint x="610" y="365" />
              <mxPoint x="610" y="365" />
            </Array>
          </mxGeometry>
        </mxCell>
        <mxCell id="6smfAwCIfCThVby5wnXH-42" value="Интерфейс" style="whiteSpace=wrap;html=1;rotation=0;fontSize=16;" parent="1" vertex="1">
          <mxGeometry x="-310" y="350" width="90" height="60" as="geometry" />
        </mxCell>
        <mxCell id="6smfAwCIfCThVby5wnXH-53" value="" style="edgeStyle=segmentEdgeStyle;endArrow=classic;html=1;curved=0;rounded=0;endSize=8;startSize=8;sourcePerimeterSpacing=0;targetPerimeterSpacing=0;dashed=1;strokeWidth=4;startArrow=oval;startFill=1;fontSize=16;entryX=1;entryY=0.634;entryDx=0;entryDy=0;entryPerimeter=0;" parent="1" target="6smfAwCIfCThVby5wnXH-23" edge="1">
          <mxGeometry width="100" relative="1" as="geometry">
            <mxPoint x="670" y="920" as="sourcePoint" />
            <mxPoint x="340" y="920" as="targetPoint" />
            <Array as="points">
              <mxPoint x="600" y="920" />
            </Array>
          </mxGeometry>
        </mxCell>
        <mxCell id="6smfAwCIfCThVby5wnXH-55" value="" style="rounded=0;whiteSpace=wrap;html=1;fontSize=16;" parent="1" vertex="1">
          <mxGeometry x="870" y="960" width="130" height="80" as="geometry" />
        </mxCell>
        <mxCell id="6smfAwCIfCThVby5wnXH-56" value="Силовой разъем для подключения моторов" style="rounded=0;whiteSpace=wrap;html=1;fontSize=16;" parent="1" vertex="1">
          <mxGeometry x="860" y="950" width="130" height="80" as="geometry" />
        </mxCell>
        <mxCell id="6smfAwCIfCThVby5wnXH-63" value="GPIO" style="whiteSpace=wrap;html=1;fontSize=16;" parent="1" vertex="1">
          <mxGeometry x="-270" y="570" width="50" height="30" as="geometry" />
        </mxCell>
        <mxCell id="6smfAwCIfCThVby5wnXH-65" style="edgeStyle=orthogonalEdgeStyle;rounded=0;orthogonalLoop=1;jettySize=auto;html=1;dashed=1;entryX=0.632;entryY=0;entryDx=0;entryDy=0;entryPerimeter=0;exitX=1;exitY=0.75;exitDx=0;exitDy=0;fontSize=16;" parent="1" source="6smfAwCIfCThVby5wnXH-64" target="6smfAwCIfCThVby5wnXH-16" edge="1">
          <mxGeometry relative="1" as="geometry">
            <Array as="points">
              <mxPoint x="402" y="558" />
            </Array>
            <mxPoint x="-207" y="890" as="targetPoint" />
          </mxGeometry>
        </mxCell>
        <mxCell id="6smfAwCIfCThVby5wnXH-66" style="edgeStyle=orthogonalEdgeStyle;rounded=0;orthogonalLoop=1;jettySize=auto;html=1;dashed=1;entryX=0.882;entryY=0.007;entryDx=0;entryDy=0;entryPerimeter=0;exitX=1;exitY=0.25;exitDx=0;exitDy=0;fontSize=16;" parent="1" source="6smfAwCIfCThVby5wnXH-64" target="6smfAwCIfCThVby5wnXH-16" edge="1">
          <mxGeometry relative="1" as="geometry">
            <Array as="points">
              <mxPoint x="435" y="533" />
              <mxPoint x="435" y="751" />
            </Array>
            <mxPoint x="-187" y="890" as="targetPoint" />
          </mxGeometry>
        </mxCell>
        <mxCell id="6smfAwCIfCThVby5wnXH-64" value="PWM" style="whiteSpace=wrap;html=1;fontSize=16;" parent="1" vertex="1">
          <mxGeometry x="-150" y="520" width="50" height="50" as="geometry" />
        </mxCell>
        <mxCell id="6smfAwCIfCThVby5wnXH-74" value="ADC" style="whiteSpace=wrap;html=1;fontSize=16;" parent="1" vertex="1">
          <mxGeometry x="-310" y="570" width="40" height="30" as="geometry" />
        </mxCell>
        <mxCell id="6smfAwCIfCThVby5wnXH-79" value="GPIO" style="whiteSpace=wrap;html=1;fontSize=16;" parent="1" vertex="1">
          <mxGeometry x="-150" y="410" width="50" height="60" as="geometry" />
        </mxCell>
        <mxCell id="6smfAwCIfCThVby5wnXH-85" value="" style="edgeStyle=segmentEdgeStyle;endArrow=classic;html=1;curved=0;rounded=0;endSize=8;startSize=8;sourcePerimeterSpacing=0;targetPerimeterSpacing=0;startArrow=oval;startFill=1;dashed=1;dashPattern=12 12;entryX=1;entryY=0.75;entryDx=0;entryDy=0;jumpStyle=arc;fontSize=16;" parent="1" target="6smfAwCIfCThVby5wnXH-79" edge="1">
          <mxGeometry width="100" relative="1" as="geometry">
            <mxPoint x="280" y="440" as="sourcePoint" />
            <mxPoint x="-86" y="500" as="targetPoint" />
            <Array as="points">
              <mxPoint x="280" y="500" />
              <mxPoint x="-60" y="500" />
              <mxPoint x="-60" y="455" />
            </Array>
          </mxGeometry>
        </mxCell>
        <mxCell id="O_ba_ppbJs6XQOrmg7lZ-1" value="" style="group;fontSize=16;" vertex="1" connectable="0" parent="1">
          <mxGeometry x="727" y="555" width="316.4166666666667" height="355" as="geometry" />
        </mxCell>
        <mxCell id="6btp0Jh6Bf2Wli3EI19b-1" value="" style="rounded=0;whiteSpace=wrap;html=1;fillColor=none;fontSize=16;" parent="O_ba_ppbJs6XQOrmg7lZ-1" vertex="1">
          <mxGeometry width="310" height="355" as="geometry" />
        </mxCell>
        <mxCell id="6btp0Jh6Bf2Wli3EI19b-3" value="" style="edgeStyle=none;orthogonalLoop=1;jettySize=auto;html=1;rounded=0;strokeWidth=4;fontSize=16;" parent="O_ba_ppbJs6XQOrmg7lZ-1" edge="1">
          <mxGeometry width="100" relative="1" as="geometry">
            <mxPoint x="15.222222222222221" y="75" as="sourcePoint" />
            <mxPoint x="73" y="75" as="targetPoint" />
            <Array as="points" />
          </mxGeometry>
        </mxCell>
        <mxCell id="6btp0Jh6Bf2Wli3EI19b-5" value="" style="edgeStyle=none;orthogonalLoop=1;jettySize=auto;html=1;rounded=0;strokeWidth=4;dashed=1;fontSize=16;" parent="O_ba_ppbJs6XQOrmg7lZ-1" edge="1">
          <mxGeometry width="100" relative="1" as="geometry">
            <mxPoint x="15.222222222222221" y="115" as="sourcePoint" />
            <mxPoint x="73" y="115" as="targetPoint" />
            <Array as="points" />
          </mxGeometry>
        </mxCell>
        <mxCell id="6btp0Jh6Bf2Wli3EI19b-6" value="" style="edgeStyle=none;orthogonalLoop=1;jettySize=auto;html=1;rounded=0;strokeWidth=2;fontSize=16;" parent="O_ba_ppbJs6XQOrmg7lZ-1" edge="1">
          <mxGeometry width="100" relative="1" as="geometry">
            <mxPoint x="15.222222222222221" y="154.56999999999994" as="sourcePoint" />
            <mxPoint x="73" y="155" as="targetPoint" />
            <Array as="points" />
          </mxGeometry>
        </mxCell>
        <mxCell id="6btp0Jh6Bf2Wli3EI19b-7" value="" style="edgeStyle=none;orthogonalLoop=1;jettySize=auto;html=1;rounded=0;fontSize=16;" parent="O_ba_ppbJs6XQOrmg7lZ-1" edge="1">
          <mxGeometry width="100" relative="1" as="geometry">
            <mxPoint x="15.222222222222221" y="194.13" as="sourcePoint" />
            <mxPoint x="73" y="195" as="targetPoint" />
            <Array as="points" />
          </mxGeometry>
        </mxCell>
        <mxCell id="6btp0Jh6Bf2Wli3EI19b-8" value="" style="edgeStyle=none;orthogonalLoop=1;jettySize=auto;html=1;rounded=0;dashed=1;fontSize=16;" parent="O_ba_ppbJs6XQOrmg7lZ-1" edge="1">
          <mxGeometry width="100" relative="1" as="geometry">
            <mxPoint x="15.222222222222221" y="234.56999999999994" as="sourcePoint" />
            <mxPoint x="73" y="235" as="targetPoint" />
            <Array as="points" />
          </mxGeometry>
        </mxCell>
        <mxCell id="6btp0Jh6Bf2Wli3EI19b-10" value="" style="edgeStyle=none;orthogonalLoop=1;jettySize=auto;html=1;rounded=0;dashed=1;dashPattern=12 12;fontSize=16;" parent="O_ba_ppbJs6XQOrmg7lZ-1" edge="1">
          <mxGeometry width="100" relative="1" as="geometry">
            <mxPoint x="15.222222222222221" y="275" as="sourcePoint" />
            <mxPoint x="73" y="275" as="targetPoint" />
            <Array as="points" />
          </mxGeometry>
        </mxCell>
        <mxCell id="6btp0Jh6Bf2Wli3EI19b-11" value="" style="edgeStyle=none;orthogonalLoop=1;jettySize=auto;html=1;rounded=0;dashed=1;dashPattern=8 8;fontSize=16;" parent="O_ba_ppbJs6XQOrmg7lZ-1" edge="1">
          <mxGeometry width="100" relative="1" as="geometry">
            <mxPoint x="15.222222222222221" y="315" as="sourcePoint" />
            <mxPoint x="73" y="315" as="targetPoint" />
            <Array as="points" />
          </mxGeometry>
        </mxCell>
        <mxCell id="6btp0Jh6Bf2Wli3EI19b-12" value="Силовое питание" style="text;html=1;align=center;verticalAlign=middle;resizable=0;points=[];autosize=1;strokeColor=none;fillColor=none;fontSize=16;" parent="O_ba_ppbJs6XQOrmg7lZ-1" vertex="1">
          <mxGeometry x="70.00222222222222" y="60" width="150" height="30" as="geometry" />
        </mxCell>
        <mxCell id="6btp0Jh6Bf2Wli3EI19b-15" value="Силовой ШИМ сигнал" style="text;html=1;align=center;verticalAlign=middle;resizable=0;points=[];autosize=1;strokeColor=none;fillColor=none;fontSize=16;" parent="O_ba_ppbJs6XQOrmg7lZ-1" vertex="1">
          <mxGeometry x="65.6111111111111" y="102" width="190" height="30" as="geometry" />
        </mxCell>
        <mxCell id="6btp0Jh6Bf2Wli3EI19b-16" value="Логическое питание" style="text;html=1;align=center;verticalAlign=middle;resizable=0;points=[];autosize=1;strokeColor=none;fillColor=none;fontSize=16;" parent="O_ba_ppbJs6XQOrmg7lZ-1" vertex="1">
          <mxGeometry x="73.2111111111111" y="140" width="170" height="30" as="geometry" />
        </mxCell>
        <mxCell id="6btp0Jh6Bf2Wli3EI19b-17" value="Аналоговый сигнал" style="text;html=1;align=center;verticalAlign=middle;resizable=0;points=[];autosize=1;strokeColor=none;fillColor=none;fontSize=16;" parent="O_ba_ppbJs6XQOrmg7lZ-1" vertex="1">
          <mxGeometry x="69.99777777777778" y="177.5" width="170" height="30" as="geometry" />
        </mxCell>
        <mxCell id="6btp0Jh6Bf2Wli3EI19b-18" value="Логический ШИМ сигнал" style="text;html=1;align=center;verticalAlign=middle;resizable=0;points=[];autosize=1;strokeColor=none;fillColor=none;fontSize=16;" parent="O_ba_ppbJs6XQOrmg7lZ-1" vertex="1">
          <mxGeometry x="68.02777777777779" y="220" width="210" height="30" as="geometry" />
        </mxCell>
        <mxCell id="6btp0Jh6Bf2Wli3EI19b-19" value="Логический цифровой сигнал" style="text;html=1;align=center;verticalAlign=middle;resizable=0;points=[];autosize=1;strokeColor=none;fillColor=none;fontSize=16;" parent="O_ba_ppbJs6XQOrmg7lZ-1" vertex="1">
          <mxGeometry x="73.20666666666668" y="260" width="240" height="30" as="geometry" />
        </mxCell>
        <mxCell id="6btp0Jh6Bf2Wli3EI19b-20" value="Сигнал тактирования" style="text;html=1;align=center;verticalAlign=middle;resizable=0;points=[];autosize=1;strokeColor=none;fillColor=none;fontSize=16;" parent="O_ba_ppbJs6XQOrmg7lZ-1" vertex="1">
          <mxGeometry x="70.60777777777778" y="299" width="180" height="30" as="geometry" />
        </mxCell>
        <mxCell id="6btp0Jh6Bf2Wli3EI19b-21" value="Легенда" style="text;html=1;align=center;verticalAlign=middle;resizable=0;points=[];autosize=1;strokeColor=none;fillColor=none;fontSize=16;fontFamily=Helvetica;fontColor=default;" parent="O_ba_ppbJs6XQOrmg7lZ-1" vertex="1">
          <mxGeometry x="97.22222222222221" y="17" width="80" height="30" as="geometry" />
        </mxCell>
        <mxCell id="O_ba_ppbJs6XQOrmg7lZ-2" value="Фильтр" style="rounded=0;whiteSpace=wrap;html=1;fontSize=16;" vertex="1" parent="1">
          <mxGeometry x="-10" y="820" width="120" height="60" as="geometry" />
        </mxCell>
        <mxCell id="O_ba_ppbJs6XQOrmg7lZ-3" value="" style="edgeStyle=orthogonalEdgeStyle;rounded=0;orthogonalLoop=1;jettySize=auto;html=1;strokeWidth=4;exitX=1;exitY=0.5;exitDx=0;exitDy=0;entryX=0;entryY=0.5;entryDx=0;entryDy=0;fontSize=16;" edge="1" parent="1" source="6smfAwCIfCThVby5wnXH-13" target="O_ba_ppbJs6XQOrmg7lZ-2">
          <mxGeometry relative="1" as="geometry">
            <mxPoint x="-120" y="830" as="sourcePoint" />
            <mxPoint x="-120" y="695" as="targetPoint" />
            <Array as="points" />
          </mxGeometry>
        </mxCell>
        <mxCell id="O_ba_ppbJs6XQOrmg7lZ-7" value="" style="edgeStyle=orthogonalEdgeStyle;rounded=0;orthogonalLoop=1;jettySize=auto;html=1;strokeWidth=4;startArrow=oval;startFill=1;fontSize=16;" edge="1" parent="1">
          <mxGeometry relative="1" as="geometry">
            <mxPoint x="-130" y="790" as="sourcePoint" />
            <mxPoint x="320" y="790" as="targetPoint" />
            <Array as="points">
              <mxPoint x="-120" y="790" />
              <mxPoint x="-120" y="790" />
            </Array>
          </mxGeometry>
        </mxCell>
        <mxCell id="O_ba_ppbJs6XQOrmg7lZ-8" value="" style="edgeStyle=orthogonalEdgeStyle;rounded=0;orthogonalLoop=1;jettySize=auto;html=1;strokeWidth=4;startArrow=oval;startFill=1;entryX=0.25;entryY=1;entryDx=0;entryDy=0;fontSize=16;" edge="1" parent="1" target="6smfAwCIfCThVby5wnXH-18">
          <mxGeometry relative="1" as="geometry">
            <mxPoint x="200" y="790" as="sourcePoint" />
            <mxPoint x="510" y="910" as="targetPoint" />
            <Array as="points">
              <mxPoint x="200" y="850" />
              <mxPoint x="612" y="850" />
            </Array>
          </mxGeometry>
        </mxCell>
        <mxCell id="6smfAwCIfCThVby5wnXH-23" value="Светодиоды направления вращения моторов" style="rounded=0;whiteSpace=wrap;html=1;fontSize=16;" parent="1" vertex="1">
          <mxGeometry x="200" y="870" width="140" height="80" as="geometry" />
        </mxCell>
        <mxCell id="O_ba_ppbJs6XQOrmg7lZ-16" value="" style="edgeStyle=orthogonalEdgeStyle;rounded=0;orthogonalLoop=1;jettySize=auto;html=1;fontSize=16;strokeWidth=2;jumpStyle=arc;jumpSize=10;entryX=0.75;entryY=1;entryDx=0;entryDy=0;startArrow=oval;startFill=1;" edge="1" parent="1" target="6smfAwCIfCThVby5wnXH-1">
          <mxGeometry relative="1" as="geometry">
            <mxPoint x="130" y="720" as="sourcePoint" />
            <mxPoint x="130" y="580" as="targetPoint" />
            <Array as="points">
              <mxPoint x="130" y="600" />
              <mxPoint x="-190" y="600" />
            </Array>
          </mxGeometry>
        </mxCell>
        <mxCell id="O_ba_ppbJs6XQOrmg7lZ-17" value="" style="edgeStyle=orthogonalEdgeStyle;rounded=0;orthogonalLoop=1;jettySize=auto;html=1;fontSize=16;strokeWidth=2;jumpStyle=arc;jumpSize=10;entryX=0;entryY=0.25;entryDx=0;entryDy=0;startArrow=oval;startFill=1;" edge="1" parent="1" target="6smfAwCIfCThVby5wnXH-16">
          <mxGeometry relative="1" as="geometry">
            <mxPoint x="130" y="720" as="sourcePoint" />
            <mxPoint x="-180" y="580" as="targetPoint" />
            <Array as="points">
              <mxPoint x="130" y="768" />
              <mxPoint x="320" y="768" />
            </Array>
          </mxGeometry>
        </mxCell>
      </root>
    </mxGraphModel>
  </diagram>
</mxfile>
